<?xml version="1.0" standalone="no"?>
<!DOCTYPE svg PUBLIC "-//W3C//DTD SVG 20010904//EN"
 "http://www.w3.org/TR/2001/REC-SVG-20010904/DTD/svg10.dtd">
<svg version="1.0" xmlns="http://www.w3.org/2000/svg"
 width="1280.000000pt" height="1153.000000pt" viewBox="0 0 1280.000000 1153.000000"
 preserveAspectRatio="xMidYMid meet">
<metadata>
Created by potrace 1.16, written by Peter Selinger 2001-2019
</metadata>
<g transform="translate(0.000000,1153.000000) scale(0.100000,-0.100000)"
fill="#000000" stroke="none">
<path d="M0 5765 l0 -5765 1828 1 c1028 0 1818 4 1807 9 l-20 9 20 1 c11 1
-25 16 -80 34 -55 19 -117 41 -138 50 -22 9 -36 12 -32 7 9 -16 -1 -14 -56 14
-27 14 -47 30 -44 35 3 5 -8 16 -25 25 -38 19 -40 11 -2 -9 15 -8 21 -15 14
-16 -19 0 -63 31 -57 40 3 5 0 12 -6 16 -8 5 -9 3 -4 -6 5 -8 3 -11 -6 -8 -8
3 -14 10 -14 16 0 5 -4 14 -9 19 -5 5 -6 2 -1 -6 5 -9 3 -12 -6 -9 -8 3 -14
10 -14 16 0 5 -4 14 -9 19 -5 5 -6 2 -1 -6 5 -9 3 -12 -6 -9 -8 3 -14 10 -14
16 0 6 -7 17 -15 24 -12 11 -12 11 -1 -4 19 -26 -2 -22 -25 4 -12 13 -13 18
-4 13 13 -8 13 -7 1 8 -15 18 -26 23 -16 7 14 -23 -13 -8 -41 22 l-29 33 30
-25 30 -25 -29 33 c-29 31 -43 42 -31 22 3 -5 2 -10 -3 -10 -12 0 -156 150
-201 210 -31 40 -32 42 -7 20 18 -16 5 7 -33 60 -118 166 -201 357 -237 547
-20 107 -15 325 10 418 22 84 100 235 150 292 22 26 35 43 27 39 -9 -6 -12 -5
-9 5 3 8 12 12 19 11 8 -2 11 0 7 4 -9 8 10 34 24 34 6 0 4 -8 -3 -17 -7 -10
1 -5 19 11 36 34 44 49 9 20 -12 -10 -9 -4 7 14 29 32 54 44 40 20 -4 -8 -3
-10 2 -5 5 5 9 14 9 19 0 6 6 13 14 16 9 3 11 0 6 -8 -5 -9 -4 -11 4 -6 6 4 9
11 6 16 -3 5 17 21 44 35 55 27 65 30 56 15 -3 -6 1 -7 9 -4 9 3 14 10 11 14
-3 4 3 11 12 15 10 3 19 1 21 -4 2 -7 10 -8 21 -1 10 5 65 17 122 26 246 39
539 -14 779 -141 25 -14 52 -26 60 -27 8 -2 21 -10 28 -18 8 -8 11 -9 7 -3 -8
16 0 16 26 2 11 -5 17 -14 14 -19 -3 -5 0 -12 6 -16 8 -4 9 -3 5 4 -11 18 10
14 25 -5 12 -14 12 -16 0 -8 -9 5 -12 4 -7 -3 4 -6 12 -9 19 -6 7 2 28 -10 47
-27 19 -17 26 -25 15 -18 -20 14 -20 13 -1 -9 20 -23 32 -30 21 -12 -3 5 -3
10 2 10 11 -1 63 -47 63 -56 0 -4 -11 3 -25 16 -14 13 -25 21 -25 19 0 -3 14
-18 32 -35 17 -16 28 -23 24 -16 -11 19 9 14 27 -6 10 -10 14 -22 10 -27 -5
-4 -3 -5 4 -2 21 13 202 -204 277 -333 39 -66 50 -98 14 -40 -65 105 -118 181
-175 248 -35 40 -63 71 -63 67 0 -3 26 -36 58 -73 253 -294 378 -690 318
-1004 -32 -164 -90 -278 -206 -402 -41 -45 -61 -70 -45 -56 l30 25 -29 -33
c-29 -31 -54 -44 -40 -20 4 8 3 10 -2 5 -5 -5 -9 -14 -9 -19 0 -6 -6 -13 -14
-16 -9 -3 -11 0 -6 9 5 8 4 11 -1 6 -5 -5 -9 -14 -9 -19 0 -6 -6 -13 -14 -16
-9 -3 -11 0 -6 9 5 8 4 11 -1 6 -5 -5 -9 -14 -9 -20 0 -7 -10 -12 -22 -11 -12
0 -21 -4 -20 -10 1 -6 -8 -11 -20 -10 -12 0 -21 -4 -20 -10 1 -5 -7 -11 -18
-13 -17 -3 -18 -2 -5 7 12 9 10 10 -10 5 -14 -4 -29 -12 -35 -17 -6 -6 -3 -7
10 -3 19 6 19 6 1 -5 -10 -7 -21 -8 -25 -4 -3 5 -35 2 -71 -8 -61 -15 74 -16
2420 -17 1367 0 2476 4 2465 8 l-20 8 20 5 c14 3 8 7 -22 15 -24 6 -40 7 -37
2 3 -5 12 -9 21 -9 9 0 14 -2 11 -5 -7 -8 -58 5 -56 14 2 18 -3 24 -11 12 -7
-10 -12 -11 -27 -1 -18 11 -18 11 1 5 13 -4 16 -3 10 3 -5 5 -21 13 -35 17
-19 5 -21 4 -10 -4 24 -17 -5 -13 -44 6 -19 9 -33 20 -31 24 3 4 -2 10 -11 13
-8 3 -12 2 -9 -4 9 -15 -1 -12 -55 15 -28 14 -49 30 -47 36 1 7 -5 14 -13 16
-13 4 -13 3 0 -7 13 -9 12 -11 -5 -8 -11 2 -20 8 -20 15 0 6 -4 15 -9 20 -5 5
-6 2 -1 -6 5 -9 3 -12 -6 -9 -8 3 -14 10 -14 16 0 5 -4 14 -9 19 -5 5 -6 2 -1
-6 5 -9 3 -12 -6 -9 -8 3 -14 10 -14 16 0 5 -4 14 -9 19 -5 5 -6 2 -1 -6 5 -9
3 -12 -6 -9 -8 3 -14 10 -14 16 0 5 -4 14 -9 19 -5 5 -6 3 -2 -4 11 -19 -9
-16 -25 4 -12 15 -12 16 1 8 13 -8 13 -7 1 8 -15 18 -26 23 -16 7 10 -17 -12
-11 -26 7 -12 15 -12 16 1 8 13 -8 13 -7 1 8 -15 18 -26 23 -16 7 14 -23 -13
-8 -41 22 l-29 33 30 -25 c27 -22 27 -21 -4 13 -34 36 -56 52 -31 22 7 -8 8
-15 3 -15 -11 0 -153 142 -153 153 0 5 6 5 12 1 7 -5 -7 15 -31 44 -55 65 -66
68 -16 5 l37 -48 -37 40 c-49 52 -148 201 -192 290 -39 77 -83 188 -83 208 1
6 16 -26 34 -73 18 -47 45 -110 60 -140 32 -61 133 -220 141 -220 2 0 -20 37
-49 83 -156 240 -222 463 -213 717 5 158 20 220 82 346 36 73 61 108 129 177
178 181 388 257 669 244 540 -25 1073 -430 1286 -977 97 -250 107 -497 28
-712 -36 -98 -82 -171 -167 -262 -41 -45 -58 -65 -37 -47 20 19 37 32 37 28 0
-9 -73 -76 -83 -77 -5 0 -5 6 -1 13 4 7 3 9 -2 4 -5 -5 -9 -14 -9 -19 0 -6 -6
-13 -14 -16 -9 -3 -11 0 -6 9 5 8 4 11 -1 6 -5 -5 -9 -14 -9 -20 0 -5 -6 -12
-14 -15 -9 -3 -11 0 -6 9 5 8 4 11 -1 6 -5 -5 -9 -14 -9 -20 0 -7 -10 -12 -22
-11 -12 0 -21 -4 -20 -10 1 -6 -8 -11 -20 -10 -12 0 -20 -3 -17 -8 5 -8 -19
-20 -66 -32 -14 -3 -7 3 15 13 49 24 42 26 -16 5 -24 -8 -71 -22 -104 -29 -51
-11 198 -13 1613 -14 l1672 -1 0 5765 0 5765 -6400 0 -6400 0 0 -5765z m3961
3452 c58 -73 111 -131 117 -130 6 2 45 -46 88 -105 42 -59 86 -117 97 -129 11
-13 18 -25 16 -28 -3 -2 -38 40 -78 95 -39 55 -75 100 -78 100 -3 0 6 -15 19
-32 14 -18 48 -66 77 -105 29 -40 57 -72 63 -70 6 1 13 -4 16 -12 3 -9 0 -11
-8 -6 -9 5 -11 4 -6 -4 4 -6 11 -9 16 -6 8 5 196 -277 294 -442 4 -7 5 -13 2
-13 -2 0 -32 46 -67 103 -79 129 -218 337 -224 337 -3 0 25 -46 63 -102 103
-153 224 -353 322 -530 48 -87 90 -154 94 -151 4 4 4 -1 0 -11 -4 -11 12 -55
49 -129 120 -243 178 -367 225 -487 57 -144 142 -395 166 -490 9 -36 44 -171
77 -300 33 -129 65 -251 70 -270 16 -65 68 -414 84 -565 14 -138 35 -498 35
-601 0 -51 -15 -58 -25 -13 -26 119 -304 893 -385 1074 -16 36 -34 83 -40 106
-25 92 -245 553 -260 544 -9 -5 -103 165 -95 173 2 2 24 -36 49 -84 25 -49 45
-85 45 -80 2 19 -315 606 -326 606 -4 0 8 -24 97 -185 18 -33 29 -55 23 -50
-5 6 -38 59 -72 119 -41 73 -58 112 -52 120 16 19 -260 463 -280 451 -5 -4 -9
-3 -8 2 3 17 -2 29 -22 53 l-21 25 17 -28 c9 -16 15 -30 13 -32 -2 -2 -40 53
-86 121 -45 68 -80 124 -77 124 2 0 32 -40 65 -90 33 -49 63 -90 66 -90 7 0
-177 269 -189 277 -6 3 4 -15 22 -40 18 -26 30 -47 28 -47 -3 0 -49 62 -103
137 -55 76 -154 209 -221 296 -118 151 -135 176 -113 162 18 -11 11 1 -12 21
-19 15 -20 16 -9 2 7 -10 11 -18 8 -18 -12 0 -212 253 -209 265 1 8 -47 69
-107 137 -60 68 -107 125 -105 127 4 4 543 28 664 29 l85 1 106 -132z m1672
59 c164 -7 299 -15 301 -17 2 -2 20 -44 39 -94 19 -49 60 -155 91 -234 117
-299 262 -747 336 -1036 17 -66 35 -128 40 -137 14 -25 84 -319 124 -520 37
-187 45 -240 76 -508 11 -96 24 -202 30 -235 26 -149 42 -825 20 -825 -10 0
-13 16 -30 145 -23 169 -112 580 -171 789 -59 205 -184 541 -316 845 -41 97
-92 217 -113 266 -56 135 -149 317 -160 310 -5 -3 -21 17 -35 45 -14 27 -23
50 -20 50 2 0 16 -21 29 -47 14 -27 25 -44 26 -40 1 18 -172 336 -182 334 -6
-1 -13 5 -15 13 -4 13 -3 13 6 0 6 -8 11 -11 11 -6 0 26 -389 706 -402 703 -6
-1 -13 5 -15 13 -4 13 -3 13 6 0 8 -11 11 -12 11 -2 0 12 -56 114 -98 180
l-14 22 63 0 c35 -1 198 -7 362 -14z m-278 -263 c58 -100 68 -120 48 -94 -24
32 -85 141 -80 141 3 0 17 -21 32 -47z m705 -18 c0 -5 -5 -3 -10 5 -5 8 -10
20 -10 25 0 6 5 3 10 -5 5 -8 10 -19 10 -25z m20 -50 c0 -5 -5 -3 -10 5 -5 8
-10 20 -10 25 0 6 5 3 10 -5 5 -8 10 -19 10 -25z m19 -55 c0 -10 -3 -8 -9 5
-12 27 -12 43 0 25 5 -8 9 -22 9 -30z m-654 -30 c9 -16 13 -30 11 -30 -3 0
-12 14 -21 30 -9 17 -13 30 -11 30 3 0 12 -13 21 -30z m675 -25 c0 -5 -5 -3
-10 5 -5 8 -10 20 -10 25 0 6 5 3 10 -5 5 -8 10 -19 10 -25z m-635 -45 c9 -16
13 -30 11 -30 -3 0 -12 14 -21 30 -9 17 -13 30 -11 30 3 0 12 -13 21 -30z
m654 -10 c0 -10 -3 -8 -9 5 -12 27 -12 43 0 25 5 -8 9 -22 9 -30z m21 -55 c0
-5 -5 -3 -10 5 -5 8 -10 20 -10 25 0 6 5 3 10 -5 5 -8 10 -19 10 -25z m-635
-5 c9 -16 13 -30 11 -30 -3 0 -12 14 -21 30 -9 17 -13 30 -11 30 3 0 12 -13
21 -30z m655 -50 c0 -13 -1 -13 -10 0 -5 8 -10 22 -10 30 0 13 1 13 10 0 5 -8
10 -22 10 -30z m-599 -52 c10 -21 17 -38 15 -38 -5 0 -56 90 -56 99 0 8 17
-17 41 -61z m644 -78 c19 -57 33 -105 31 -107 -2 -3 -19 40 -36 94 -18 54 -35
105 -38 113 -3 8 -2 12 2 9 3 -3 22 -52 41 -109z m-565 -65 c24 -44 38 -75 33
-70 -6 6 -30 46 -53 90 -24 44 -39 76 -33 70 6 -5 29 -46 53 -90z m619 -100
c0 -5 -4 -3 -9 5 -5 8 -9 22 -9 30 0 16 17 -16 18 -35z m20 -65 c0 -9 -4 -8
-9 5 -5 11 -9 27 -9 35 0 9 4 8 9 -5 5 -11 9 -27 9 -35z m-534 -30 c19 -38 33
-70 30 -70 -2 0 -21 32 -40 70 -19 39 -33 70 -30 70 2 0 21 -31 40 -70z
m-1140 10 c9 -16 13 -30 11 -30 -3 0 -12 14 -21 30 -9 17 -13 30 -11 30 3 0
12 -13 21 -30z m1694 -40 c0 -10 -3 -8 -9 5 -12 27 -12 43 0 25 5 -8 9 -22 9
-30z m-1627 -77 c48 -86 56 -103 41 -88 -14 14 -96 165 -89 165 2 0 24 -35 48
-77z m1647 12 c0 -5 -4 -3 -9 5 -5 8 -9 22 -9 30 0 16 17 -16 18 -35z m-525
-1 c3 -8 2 -12 -4 -9 -6 3 -10 10 -10 16 0 14 7 11 14 -7z m545 -64 c0 -9 -4
-8 -9 5 -5 11 -9 27 -9 35 0 9 4 8 9 -5 5 -11 9 -27 9 -35z m-519 19 c0 -6 -4
-7 -10 -4 -5 3 -10 11 -10 16 0 6 5 7 10 4 6 -3 10 -11 10 -16z m539 -89 c0
-9 -4 -8 -9 5 -5 11 -9 27 -9 35 0 9 4 8 9 -5 5 -11 9 -27 9 -35z m-1614 -11
c9 -17 15 -33 13 -35 -3 -2 -12 12 -21 31 -21 43 -13 47 8 4z m1713 -344 c0
-16 -2 -15 -8 5 -11 34 -11 60 0 35 5 -11 8 -29 8 -40z m-420 -10 c-3 -3 -9 2
-12 12 -6 14 -5 15 5 6 7 -7 10 -15 7 -18z m41 -90 c0 -5 -8 6 -19 25 -11 19
-19 40 -19 45 0 6 8 -6 19 -25 11 -19 19 -39 19 -45z m399 20 c0 -16 -2 -15
-8 5 -11 34 -11 60 0 35 5 -11 8 -29 8 -40z m21 -80 l0 -20 -9 20 c-5 11 -9
29 -9 40 l0 20 9 -20 c5 -11 9 -29 9 -40z m-405 29 c3 -8 2 -12 -4 -9 -6 3
-10 10 -10 16 0 14 7 11 14 -7z m-1095 -59 c0 -5 -6 1 -14 15 -8 14 -14 30
-14 35 0 6 6 -1 14 -15 8 -14 14 -29 14 -35z m1156 -93 c-2 -3 -9 6 -14 19 -5
13 -16 41 -25 63 -27 64 -17 55 15 -13 16 -35 27 -66 24 -69z m363 33 c0 -16
-2 -15 -8 5 -4 14 -8 34 -8 45 0 16 2 15 8 -5 4 -14 8 -34 8 -45z m-1498 10
c0 -5 -5 -3 -10 5 -5 8 -10 20 -10 25 0 6 5 3 10 -5 5 -8 10 -19 10 -25z m20
-50 c0 -5 -5 -3 -10 5 -5 8 -10 20 -10 25 0 6 5 3 10 -5 5 -8 10 -19 10 -25z
m1498 -50 c0 -16 -2 -15 -8 5 -4 14 -8 34 -8 45 0 16 2 15 8 -5 4 -14 8 -34 8
-45z m-358 10 c0 -5 -5 -3 -10 5 -5 8 -10 20 -10 25 0 6 5 3 10 -5 5 -8 10
-19 10 -25z m-1120 -10 c0 -5 -5 -3 -10 5 -5 8 -10 20 -10 25 0 6 5 3 10 -5 5
-8 10 -19 10 -25z m1140 -40 c0 -5 -5 -3 -10 5 -5 8 -10 20 -10 25 0 6 5 3 10
-5 5 -8 10 -19 10 -25z m-1120 -10 c0 -5 -5 -3 -10 5 -5 8 -10 20 -10 25 0 6
5 3 10 -5 5 -8 10 -19 10 -25z m1479 -44 c1 -35 -5 -22 -12 24 -5 28 -4 34 3
20 5 -11 9 -31 9 -44z m-339 4 c0 -5 -5 -3 -10 5 -5 8 -10 20 -10 25 0 6 5 3
10 -5 5 -8 10 -19 10 -25z m-1120 -10 c0 -5 -5 -3 -10 5 -5 8 -10 20 -10 25 0
6 5 3 10 -5 5 -8 10 -19 10 -25z m1140 -40 c0 -5 -5 -3 -10 5 -5 8 -10 20 -10
25 0 6 5 3 10 -5 5 -8 10 -19 10 -25z m-1121 -20 c0 -5 -4 -3 -9 5 -5 8 -9 22
-9 30 0 16 17 -16 18 -35z m1459 -40 c0 -16 -2 -15 -8 5 -4 14 -8 36 -8 50 0
22 1 22 8 -5 4 -16 8 -39 8 -50z m-1973 -15 c19 -38 33 -70 30 -70 -2 0 -21
32 -40 70 -19 39 -33 70 -30 70 2 0 21 -31 40 -70z m1655 25 c0 -5 -5 -3 -10
5 -5 8 -10 20 -10 25 0 6 5 3 10 -5 5 -8 10 -19 10 -25z m-1121 -25 c0 -10 -3
-8 -9 5 -12 27 -12 43 0 25 5 -8 9 -22 9 -30z m1141 -25 c0 -5 -5 -3 -10 5 -5
8 -10 20 -10 25 0 6 5 3 10 -5 5 -8 10 -19 10 -25z m-1121 -35 c0 -10 -3 -8
-9 5 -12 27 -12 43 0 25 5 -8 9 -22 9 -30z m1439 -30 c0 -22 -1 -22 -8 5 -4
17 -8 39 -8 50 0 16 2 15 8 -5 4 -14 8 -36 8 -50z m-298 15 c0 -5 -5 -3 -10 5
-5 8 -10 20 -10 25 0 6 5 3 10 -5 5 -8 10 -19 10 -25z m-1646 -21 c3 -8 2 -12
-4 -9 -6 3 -10 10 -10 16 0 14 7 11 14 -7z m541 -65 c14 -40 21 -69 16 -64 -5
6 -17 35 -26 65 -10 30 -20 62 -23 70 -3 8 -2 12 1 9 4 -3 18 -39 32 -80z
m1124 26 c0 -5 -4 -3 -9 5 -5 8 -9 22 -9 30 0 16 17 -16 18 -35z m299 -80 c0
-25 -2 -24 -9 10 -10 51 -10 92 1 50 4 -16 8 -43 8 -60z m-279 25 c0 -10 -3
-8 -9 5 -12 27 -12 43 0 25 5 -8 9 -22 9 -30z m160 -520 c0 -9 -4 -8 -9 5 -5
11 -9 27 -9 35 0 9 4 8 9 -5 5 -11 9 -27 9 -35z m178 -27 c-2 -16 -4 -5 -4 22
0 28 2 40 4 28 2 -13 2 -35 0 -50z m-158 -43 c0 -9 -4 -8 -9 5 -5 11 -9 27 -9
35 0 9 4 8 9 -5 5 -11 9 -27 9 -35z m19 -85 c0 -16 -2 -15 -8 5 -4 14 -8 34
-8 45 0 16 2 15 8 -5 4 -14 8 -34 8 -45z m-1160 -25 c0 -22 -1 -22 -8 5 -4 17
-8 39 -8 50 0 16 2 15 8 -5 4 -14 8 -36 8 -50z m1320 -335 c0 -132 -1 -235 -3
-230 -2 6 -5 152 -7 325 -2 173 -1 277 3 230 4 -47 7 -193 7 -325z m-1680 350
c-3 -3 -9 2 -12 12 -6 14 -5 15 5 6 7 -7 10 -15 7 -18z m86 -204 c31 -79 55
-145 53 -147 -3 -3 -126 297 -135 330 -11 39 35 -61 82 -183z m1454 129 c0 -9
-3 -7 -8 5 -5 11 -8 29 -8 40 0 16 2 15 8 -5 4 -14 8 -32 8 -40z m-1159 -44
c2 -45 -6 -27 -12 29 -4 34 -3 42 3 25 4 -14 8 -38 9 -54z m1179 -51 c0 -16
-2 -15 -8 5 -4 14 -8 34 -8 45 0 16 2 15 8 -5 4 -14 8 -34 8 -45z m-1160 -80
c0 -25 -2 -24 -9 10 -10 51 -10 92 1 50 4 -16 8 -43 8 -60z m1180 -20 c0 -16
-2 -15 -8 5 -4 14 -8 34 -8 45 0 16 2 15 8 -5 4 -14 8 -34 8 -45z m-1160 -120
l-1 -40 -8 45 c-4 25 -7 56 -7 70 0 23 1 22 8 -5 4 -16 8 -48 8 -70z m1180 5
c0 -22 -1 -22 -8 5 -4 17 -8 41 -8 55 0 22 1 22 8 -5 4 -16 8 -41 8 -55z
m-1438 -15 c0 -5 -5 -3 -10 5 -5 8 -10 20 -10 25 0 6 5 3 10 -5 5 -8 10 -19
10 -25z m34 -95 c5 -20 3 -19 -8 5 -7 17 -16 41 -20 55 -5 20 -3 19 8 -5 7
-16 16 -41 20 -55z m1424 -25 c-1 -31 -16 35 -16 70 0 25 2 24 9 -10 4 -22 8
-49 7 -60z m-1180 -60 c-1 -39 -1 -39 -8 10 -5 28 -8 66 -8 85 0 32 1 31 9
-10 4 -25 7 -63 7 -85z m-218 20 c0 -5 -5 -3 -10 5 -5 8 -10 20 -10 25 0 6 5
3 10 -5 5 -8 10 -19 10 -25z m19 -60 c0 -5 -4 -3 -9 5 -5 8 -9 22 -9 30 0 16
17 -16 18 -35z m36 -95 c14 -40 23 -75 21 -77 -2 -2 -14 26 -26 64 -13 37 -25
75 -28 83 -3 8 -2 12 1 9 4 -3 18 -39 32 -79z m184 -159 c2 -142 -6 -85 -12
79 -3 99 -2 128 3 80 4 -41 8 -113 9 -159z m-140 24 c0 -5 -4 -3 -9 5 -5 8 -9
22 -9 30 0 16 17 -16 18 -35z m21 -55 c0 -13 -1 -13 -10 0 -5 8 -10 22 -10 30
0 13 1 13 10 0 5 -8 10 -22 10 -30z m19 -65 c0 -5 -4 -3 -9 5 -5 8 -9 22 -9
30 0 16 17 -16 18 -35z m20 -65 c0 -9 -4 -8 -9 5 -5 11 -9 27 -9 35 0 9 4 8 9
-5 5 -11 9 -27 9 -35z m20 -60 c0 -10 -3 -8 -9 5 -12 27 -12 43 0 25 5 -8 9
-22 9 -30z m68 -52 c-2 -13 -4 -3 -4 22 0 25 2 35 4 23 2 -13 2 -33 0 -45z
m-48 -13 c0 -5 -4 -3 -9 5 -5 8 -9 22 -9 30 0 16 17 -16 18 -35z m-2339 -2915
c-8 -5 -19 -10 -25 -10 -5 0 -3 5 5 10 8 5 20 10 25 10 6 0 3 -5 -5 -10z m-41
-14 c-2 -2 -17 -6 -34 -10 -22 -5 -26 -4 -15 4 14 9 59 15 49 6z m-415 -269
c-16 -18 -37 -44 -47 -57 -18 -25 -18 -25 -1 5 16 29 64 85 72 85 2 0 -9 -15
-24 -33z m5300 -141 c-24 -48 -44 -83 -44 -76 0 14 81 172 86 168 1 -2 -17
-43 -42 -92z m-5391 -1 c-15 -30 -29 -53 -31 -51 -4 5 46 106 53 106 3 0 -7
-25 -22 -55z m-42 -96 c-5 -13 -10 -19 -10 -12 -1 15 10 45 15 40 3 -2 0 -15
-5 -28z m5380 -30 c-5 -13 -10 -19 -10 -12 -1 15 10 45 15 40 3 -2 0 -15 -5
-28z m-5401 -39 c-5 -22 -8 -27 -9 -13 -1 21 9 56 14 51 2 -2 0 -19 -5 -38z
m5384 -34 c-3 -21 -8 -35 -11 -32 -2 2 -1 20 3 40 3 21 8 35 11 32 2 -2 1 -20
-3 -40z m-5399 -193 c0 -102 -3 -169 -7 -147 -12 71 -8 334 6 334 0 0 1 -84 1
-187z m5382 -55 c-2 -35 -3 -7 -3 62 0 69 1 97 3 63 2 -35 2 -91 0 -125z
m-3239 17 c-3 -3 -9 2 -12 12 -6 14 -5 15 5 6 7 -7 10 -15 7 -18z m20 -40 c-3
-3 -9 2 -12 12 -6 14 -5 15 5 6 7 -7 10 -15 7 -18z m22 -50 c0 -5 -5 -3 -10 5
-5 8 -10 20 -10 25 0 6 5 3 10 -5 5 -8 10 -19 10 -25z m3218 -80 c0 -16 -2
-15 -8 5 -4 14 -8 36 -8 50 0 22 1 22 8 -5 4 -16 8 -39 8 -50z m-3198 30 c0
-5 -5 -3 -10 5 -5 8 -10 20 -10 25 0 6 5 3 10 -5 5 -8 10 -19 10 -25z m-2182
-80 c0 -16 -2 -15 -8 5 -4 14 -8 34 -8 45 0 16 2 15 8 -5 4 -14 8 -34 8 -45z
m2201 15 c0 -9 -4 -8 -9 5 -5 11 -9 27 -9 35 0 9 4 8 9 -5 5 -11 9 -27 9 -35z
m3200 -50 c0 -9 -4 -8 -9 5 -5 11 -9 27 -9 35 0 9 4 8 9 -5 5 -11 9 -27 9 -35z
m2198 18 c-3 -8 -6 -5 -6 6 -1 11 2 17 5 13 3 -3 4 -12 1 -19z m-5378 -33 l0
-20 -9 20 c-5 11 -9 27 -9 35 -1 13 0 13 9 0 5 -8 9 -24 9 -35z m-2183 -82
c-5 -5 -36 86 -35 101 0 6 9 -13 20 -43 10 -30 17 -56 15 -58z m7582 32 c0
-16 -2 -15 -8 5 -4 14 -8 34 -8 45 0 16 2 15 8 -5 4 -14 8 -34 8 -45z m-5379
-59 c2 -45 -6 -27 -12 29 -4 34 -3 42 3 25 4 -14 8 -38 9 -54z m5399 -156 c0
-58 -3 -118 -7 -134 -3 -17 -6 48 -6 144 0 95 3 155 7 134 4 -21 7 -86 6 -144z
m-7578 135 c0 -5 -5 -3 -10 5 -5 8 -10 20 -10 25 0 6 5 3 10 -5 5 -8 10 -19
10 -25z m139 -253 c23 -34 40 -62 37 -62 -17 0 -176 268 -176 296 0 5 22 -32
48 -81 27 -50 67 -119 91 -153z m2048 76 c-2 -29 -3 -6 -3 52 0 58 1 81 3 53
2 -29 2 -77 0 -105z m-12 -128 c-4 -23 -9 -39 -11 -37 -3 2 -2 23 2 46 4 23 9
40 11 37 3 -3 2 -23 -2 -46z m5380 -50 c-9 -41 -17 -33 -9 9 4 17 9 30 11 27
3 -2 2 -19 -2 -36z m-5401 -34 c-3 -15 -8 -25 -11 -23 -2 3 -1 17 3 31 3 15 8
25 11 23 2 -3 1 -17 -3 -31z m5377 -37 c-5 -13 -10 -19 -10 -12 -1 15 10 45
15 40 3 -2 0 -15 -5 -28z m-5400 -26 c-12 -20 -14 -14 -5 12 4 9 9 14 11 11 3
-2 0 -13 -6 -23z m5380 -26 c-10 -9 -11 -8 -5 6 3 10 9 15 12 12 3 -3 0 -11
-7 -18z m-5407 -39 c-38 -75 -149 -218 -169 -218 -5 0 12 21 37 48 46 47 122
157 134 194 3 11 8 17 11 15 2 -3 -3 -20 -13 -39z m5363 -45 c-41 -67 -108
-152 -120 -153 -5 0 11 22 35 48 23 27 59 76 78 109 19 34 37 59 39 57 2 -2
-12 -30 -32 -61z m-6522 -319 c50 -18 85 -33 78 -33 -18 -1 -187 60 -198 71
-7 8 -4 8 10 3 11 -5 61 -23 110 -41z m672 -40 c-3 -3 -12 -4 -19 -1 -8 3 -5
6 6 6 11 1 17 -2 13 -5z m5390 0 c-3 -3 -12 -4 -19 -1 -8 3 -5 6 6 6 11 1 17
-2 13 -5z"/>
<path d="M4090 9061 c5 -11 15 -23 21 -27 6 -3 3 5 -6 20 -20 30 -30 35 -15 7z"/>
<path d="M3349 9012 c17 -22 38 -45 48 -53 10 -8 -2 10 -26 39 -51 60 -68 71
-22 14z"/>
<path d="M3450 8890 c23 -27 47 -53 53 -57 7 -4 -10 19 -37 50 -27 31 -51 57
-53 57 -3 0 14 -22 37 -50z"/>
<path d="M3606 8698 c31 -40 108 -143 172 -228 63 -85 122 -162 130 -170 14
-13 15 -13 5 0 -98 140 -351 470 -360 470 -2 0 21 -33 53 -72z"/>
<path d="M2915 2110 c-3 -6 1 -7 9 -4 18 7 21 14 7 14 -6 0 -13 -4 -16 -10z"/>
<path d="M3147 2074 c-561 -120 -719 -759 -331 -1335 199 -297 502 -515 842
-607 85 -22 117 -26 257 -26 141 -1 169 2 235 22 225 71 376 208 449 408 83
227 58 480 -74 749 -201 411 -581 707 -1014 789 -102 20 -273 19 -364 0z m608
-516 c124 -26 285 -136 373 -254 103 -138 146 -259 145 -409 0 -120 -23 -190
-87 -268 -167 -204 -497 -171 -737 73 -276 280 -272 709 7 837 93 42 174 48
299 21z"/>
<path d="M3530 1455 c-19 -9 -24 -12 -10 -9 61 15 157 15 215 0 66 -17 88 -14
28 4 -63 19 -193 22 -233 5z"/>
<path d="M3530 1435 c-55 -18 -53 -18 -44 -2 4 7 3 9 -2 4 -5 -5 -9 -14 -9
-19 0 -6 -6 -13 -14 -16 -9 -3 -11 0 -7 9 4 8 -11 -6 -33 -30 -92 -98 -96
-282 -11 -451 15 -30 38 -66 50 -80 l22 -25 -20 30 c-22 34 -47 82 -39 75 8
-8 77 -112 77 -117 0 -2 -6 -1 -12 3 -7 4 12 -19 42 -50 51 -52 78 -75 50 -41
-20 24 5 17 26 -7 12 -13 13 -18 4 -13 -13 8 -13 7 -1 -8 15 -19 26 -23 15 -6
-4 7 -1 10 7 7 8 -3 13 -10 12 -15 -1 -5 8 -9 20 -9 12 1 22 -5 22 -13 0 -8 7
-16 15 -18 13 -4 13 -3 0 6 -22 16 -2 13 60 -9 30 -11 46 -20 35 -21 -46 -3
32 -17 95 -17 64 0 139 14 95 18 -14 1 -9 7 20 20 48 22 58 24 50 8 -4 -7 14
9 39 35 55 58 76 120 76 222 0 136 -61 273 -173 388 -38 40 -62 62 -52 50 10
-13 14 -23 8 -23 -12 0 -42 32 -40 42 1 3 -2 10 -7 15 -5 5 -6 2 -1 -6 5 -9 3
-12 -6 -9 -8 3 -14 10 -14 15 0 6 -4 15 -9 20 -6 5 -6 2 -1 -6 6 -10 4 -13 -6
-8 -120 52 -149 60 -219 64 -48 2 -91 -3 -120 -12z m-104 -68 c-15 -19 -26
-39 -26 -45 0 -6 -4 -14 -10 -17 -5 -3 -10 -2 -10 3 0 11 58 92 66 92 3 0 -6
-15 -20 -33z m653 -187 c30 -53 20 -52 -12 3 -14 23 -44 65 -67 92 l-42 50 49
-52 c27 -29 59 -70 72 -93z m-707 13 c-4 -86 -1 -107 21 -173 30 -90 28 -105
-3 -23 -25 64 -36 176 -26 247 4 25 9 46 10 46 2 0 1 -44 -2 -97z m767 -153
c0 -8 -9 8 -19 35 -11 28 -20 52 -19 55 2 11 38 -76 38 -90z m19 -135 c0 -44
-3 -90 -6 -103 -4 -13 -7 31 -7 97 0 66 3 113 7 103 4 -9 6 -53 6 -97z m-618
-130 c19 -19 32 -35 29 -35 -3 0 -20 16 -39 35 -19 19 -32 35 -29 35 3 0 20
-16 39 -35z m581 -48 c-11 -18 -30 -42 -43 -53 -16 -14 -15 -10 6 15 15 19 32
46 37 59 5 14 12 22 15 19 4 -3 -3 -21 -15 -40z m-193 -114 c-21 -2 -55 -2
-75 0 -21 2 -4 4 37 4 41 0 58 -2 38 -4z"/>
<path d="M3720 636 c0 -2 7 -7 16 -10 8 -3 12 -2 9 4 -6 10 -25 14 -25 6z"/>
<path d="M8540 2074 c-185 -39 -333 -136 -428 -278 -91 -136 -128 -277 -118
-456 29 -537 479 -1052 1054 -1208 85 -22 117 -26 257 -26 141 -1 169 2 235
22 252 80 402 231 471 477 28 99 31 290 6 400 -133 596 -727 1089 -1306 1084
-58 0 -135 -7 -171 -15z m605 -516 c67 -14 175 -69 245 -124 148 -116 250
-294 272 -473 50 -397 -333 -602 -693 -369 -328 211 -441 657 -222 876 97 97
229 127 398 90z"/>
<path d="M9030 1460 c41 -4 89 -10 105 -13 19 -4 15 -1 -10 7 -22 8 -69 14
-105 14 l-65 -1 75 -7z"/>
<path d="M8905 1449 c-13 -5 -15 -8 -5 -8 13 -1 13 -2 0 -11 -21 -14 -33 -12
-24 3 4 7 3 9 -2 4 -5 -5 -9 -14 -9 -19 0 -6 -6 -13 -14 -16 -9 -3 -11 0 -7 9
4 8 -10 -5 -32 -28 -133 -144 -77 -444 119 -628 29 -27 47 -42 40 -32 -18 23
-3 22 23 -2 25 -23 138 -81 157 -81 8 0 21 -5 29 -11 12 -9 10 -10 -9 -5 -17
3 -21 2 -13 -6 6 -6 42 -13 80 -16 76 -5 154 5 133 17 -7 5 3 14 30 24 23 9
45 14 50 12 4 -3 23 13 42 35 90 105 90 291 1 461 -42 79 -145 197 -171 195
-10 0 -18 4 -18 11 0 6 -4 15 -9 20 -5 5 -6 2 -1 -6 5 -9 3 -12 -6 -9 -8 3
-14 10 -14 15 0 6 -4 15 -9 20 -5 5 -6 3 -2 -4 10 -19 -3 -15 -54 13 -28 15
-35 22 -20 19 21 -5 22 -4 7 5 -9 6 -22 8 -28 5 -5 -4 -31 -2 -57 4 -64 14
-183 20 -207 10z m42 -5 c-3 -3 -12 -4 -19 -1 -8 3 -5 6 6 6 11 1 17 -2 13 -5z
m-135 -83 c-15 -21 -29 -37 -31 -35 -4 4 47 74 54 74 3 0 -8 -18 -23 -39z
m673 -212 c20 -39 35 -72 33 -74 -2 -2 -20 29 -41 69 -21 40 -63 102 -93 137
l-56 64 60 -63 c33 -34 76 -94 97 -133z m-714 130 c-5 -13 -10 -19 -10 -12 -1
15 10 45 15 40 3 -2 0 -15 -5 -28z m-14 -151 c-2 -24 -4 -5 -4 42 0 47 2 66 4
43 2 -24 2 -62 0 -85z m22 -108 c0 -9 -4 -8 -9 5 -5 11 -9 27 -9 35 0 9 4 8 9
-5 5 -11 9 -27 9 -35z m759 -15 c0 -16 -2 -15 -8 5 -11 34 -11 60 0 35 5 -11
8 -29 8 -40z m-738 -40 c0 -5 -5 -3 -10 5 -5 8 -10 20 -10 25 0 6 5 3 10 -5 5
-8 10 -19 10 -25z m747 -107 c-2 -24 -4 -5 -4 42 0 47 2 66 4 43 2 -24 2 -62
0 -85z m-727 71 c0 -6 -4 -7 -10 -4 -5 3 -10 11 -10 16 0 6 5 7 10 4 6 -3 10
-11 10 -16z m31 -56 c13 -21 42 -59 64 -84 33 -38 32 -37 -10 6 -45 47 -93
115 -81 115 2 0 15 -17 27 -37z m679 -100 c-11 -17 -11 -17 -6 0 3 10 6 24 7
30 0 9 2 9 5 0 3 -7 0 -20 -6 -30z m-28 -61 c-12 -16 -29 -35 -38 -43 -10 -8
-2 7 17 32 37 50 55 59 21 11z m-184 -99 c-21 -2 -55 -2 -75 0 -21 2 -4 4 37
4 41 0 58 -2 38 -4z"/>
<path d="M8994 701 c7 -11 46 -35 46 -28 0 3 -12 12 -26 22 -15 9 -23 12 -20
6z"/>
<path d="M9110 636 c0 -2 7 -7 16 -10 8 -3 12 -2 9 4 -6 10 -25 14 -25 6z"/>
<path d="M4120 1926 c0 -2 8 -10 18 -17 15 -13 16 -12 3 4 -13 16 -21 21 -21
13z"/>
<path d="M4320 1756 c0 -2 8 -10 18 -17 15 -13 16 -12 3 4 -13 16 -21 21 -21
13z"/>
<path d="M2831 534 c13 -17 26 -30 28 -27 3 2 -8 16 -24 31 l-28 27 24 -31z"/>
<path d="M8300 445 c30 -30 57 -55 59 -55 3 0 -19 25 -49 55 -30 30 -57 55
-59 55 -3 0 19 -25 49 -55z"/>
<path d="M2920 435 c30 -30 57 -55 59 -55 3 0 -19 25 -49 55 -30 30 -57 55
-59 55 -3 0 19 -25 49 -55z"/>
<path d="M3347 129 c7 -7 15 -10 18 -7 3 3 -2 9 -12 12 -14 6 -15 5 -6 -5z"/>
<path d="M8737 129 c7 -7 15 -10 18 -7 3 3 -2 9 -12 12 -14 6 -15 5 -6 -5z"/>
<path d="M8820 90 c8 -5 20 -10 25 -10 6 0 3 5 -5 10 -8 5 -19 10 -25 10 -5 0
-3 -5 5 -10z"/>
<path d="M3680 10 c25 -8 87 -13 79 -6 -2 2 -26 6 -54 9 -34 4 -42 3 -25 -3z"/>
<path d="M9070 10 c25 -8 87 -13 79 -6 -2 2 -26 6 -54 9 -34 4 -42 3 -25 -3z"/>
</g>
</svg>
